<?xml version="1.0" encoding="UTF-8"?>
<svg width="242px" height="28px" viewBox="0 0 242 28" version="1.1" xmlns="http://www.w3.org/2000/svg" xmlns:xlink="http://www.w3.org/1999/xlink">
    <title>Logo</title>
    <defs>
        <polygon id="path-1" points="4.85549133e-05 0.129868208 22.0905919 0.129868208 22.0905919 23.9537572 4.85549133e-05 23.9537572"></polygon>
    </defs>
    <g id="Page-1" stroke="none" stroke-width="1" fill="none" fill-rule="evenodd">
        <g id="Home" transform="translate(-120.000000, -53.000000)">
            <g id="Top-Bar" transform="translate(120.000000, 47.000000)">
                <g id="Logo" transform="translate(0.000000, 6.000081)">
                    <path d="M42.3938775,10.1647607 C42.4273803,10.0634428 42.4429179,9.92651792 42.4429179,9.73456416 C42.4429179,9.08133873 42.0520509,8.54156994 41.2813225,8.13030983 L41.2811607,8.13030983 C40.5742012,7.75336185 39.5982474,7.56237919 38.3800046,7.56237919 C37.2345942,7.56237919 36.141785,7.79511908 35.1320046,8.25428671 C34.3743861,8.59870289 33.7001202,9.04524624 33.1190798,9.58663353 C33.0661549,8.40804393 32.3713341,7.76145434 31.1490451,7.76145434 C30.5345017,7.76145434 30.0466867,7.93754682 29.6995191,8.2848763 C29.3521896,8.63204393 29.1760971,9.11969711 29.1760971,9.73456416 L29.1760971,24.5612925 C29.1760971,25.2009225 29.3538081,25.6956971 29.7037272,26.0315353 C30.0496,26.3652694 30.5359584,26.5344023 31.1490451,26.5344023 C31.7881896,26.5344023 32.2829642,26.3566913 32.6197734,26.0066104 C32.9531838,25.6600902 33.1223168,25.1737318 33.1223168,24.5612925 L33.1223168,14.8758821 C33.1223168,13.7314428 33.5585017,12.8482289 34.4559584,12.1754197 C35.3686289,11.4907954 36.599496,11.1437896 38.1148948,11.1437896 C38.6451145,11.1437896 39.3522358,11.2201827 40.2085827,11.3698936 C40.4499006,11.4186104 40.6331145,11.4422405 40.768259,11.4422405 C41.5970913,11.4422405 42.160652,10.995859 42.3938775,10.1647607" id="Fill-1" fill="#050C36"></path>
                    <path d="M48.520148,12.3591353 C49.4625988,11.5306266 50.7153156,11.1106266 52.243015,11.1106266 C53.6099977,11.1106266 54.7301595,11.526904 55.5722636,12.3481295 C56.3499514,13.1070428 56.8570266,14.1179561 57.0823214,15.3572393 L46.7909457,15.3572393 C47.0775815,14.1239445 47.6582983,13.1165919 48.520148,12.3591353 M56.8176971,8.80216416 C55.5343908,8.02366705 53.9952,7.62875376 52.243015,7.62875376 C50.4709225,7.62875376 48.8611653,8.03920462 47.4584139,8.84845318 C46.0540439,9.65948208 44.942622,10.805378 44.1550613,12.2545803 C43.3705757,13.699089 42.9725873,15.3509272 42.9725873,17.1644532 C42.9725873,18.9818636 43.3940439,20.6309503 44.2257896,22.0655861 C45.0586682,23.5032971 46.2322405,24.6425572 47.7138127,25.4509965 C49.1908532,26.2579792 50.8820208,26.6671353 52.7403792,26.6671353 C53.7877087,26.6671353 54.8984832,26.4717827 56.0417896,26.0867422 C57.1878474,25.7010543 58.1628301,25.1925225 58.932911,24.5807306 C59.3684486,24.2537942 59.5895353,23.8344416 59.5895353,23.3340023 C59.5895353,22.8180254 59.3504832,22.3572393 58.8890497,21.9731699 C58.5867145,21.6989965 58.1807954,21.5599676 57.682622,21.5599676 C57.192541,21.5599676 56.7587838,21.7053087 56.3975353,21.9891931 C55.9626451,22.3204994 55.3958474,22.6056786 54.7126798,22.8369618 C54.0309688,23.0679214 53.367385,23.1852624 52.7403792,23.1852624 C51.1421133,23.1852624 49.7751306,22.7291699 48.6774659,21.8300948 C47.6754543,21.0098405 47.0282173,19.937748 46.7499977,18.6401988 L58.9762867,18.6401988 C59.5008416,18.6401988 59.9423676,18.4710659 60.2890497,18.1376555 C60.6391306,17.8006844 60.8168416,17.3729156 60.8168416,16.8660023 C60.8168416,15.0788578 60.4711306,13.4699098 59.7894197,12.0833434 C59.1022058,10.6864185 58.1024601,9.58260347 56.8176971,8.80216416" id="Fill-3" fill="#050C36"></path>
                    <path d="M77.4019376,8.62924393 C76.1443653,7.94348671 74.7098913,7.59567168 73.1381688,7.59567168 C71.9984231,7.59567168 70.9104694,7.79846936 69.9040879,8.1984 C69.1215445,8.50963699 68.4144231,8.92591445 67.7937295,9.43994913 C67.7357873,8.99356763 67.556296,8.61726705 67.2573595,8.31800694 C66.8875329,7.94882775 66.3998798,7.76156763 65.8076717,7.76156763 C65.2389318,7.76156763 64.7579145,7.9476948 64.3783769,8.31428439 C63.9956023,8.68411098 63.8015445,9.17305896 63.8015445,9.7676948 L63.8015445,24.5614058 C63.8015445,25.1325734 63.9943075,25.6147237 64.3744925,25.9942613 C64.7541919,26.3746081 65.236504,26.5675329 65.8076717,26.5675329 C66.4023075,26.5675329 66.8912555,26.3733133 67.2614058,25.9905387 C67.6279954,25.6106775 67.8141225,25.1299838 67.8141225,24.5614058 L67.8141225,15.2074636 C67.8141225,14.4791399 68.0136832,13.8128046 68.4073017,13.2270705 C68.8052902,12.6355098 69.3669087,12.1580532 70.076296,11.8079723 C70.7923191,11.4553017 71.5991399,11.2764578 72.4749087,11.2764578 C73.9755792,11.2764578 75.1913942,11.7103769 76.0885272,12.5660763 C76.9812902,13.4178913 77.4339838,14.7084809 77.4339838,16.4015908 L77.4339838,24.5614058 C77.4339838,25.1325734 77.6270705,25.6145618 78.0069318,25.9942613 C78.3869549,26.3746081 78.8691052,26.5675329 79.4404347,26.5675329 C80.0109549,26.5675329 80.4932671,26.3747699 80.8732902,25.9944231 C81.2537988,25.6140763 81.4465618,25.131926 81.4465618,24.5614058 L81.4465618,16.4015908 C81.4465618,14.5670243 81.0879029,12.9711861 80.3806197,11.6584231 C79.6688046,10.3385387 78.6666312,9.3193711 77.4019376,8.62924393" id="Fill-5" fill="#050C36"></path>
                    <path d="M96.7900763,22.2852486 L96.7900763,22.2854104 C95.9491052,22.7944277 94.9938682,23.052578 93.9510705,23.052578 C92.9084347,23.052578 91.9531977,22.7944277 91.1120647,22.2854104 C90.268504,21.7752601 89.5924578,21.0616647 89.1025387,20.1645318 C88.6110012,19.2656185 88.3615908,18.2449942 88.3615908,17.1313064 C88.3615908,16.0189133 88.6106775,15.0044393 89.1017295,14.1160462 C89.5914867,13.2299191 90.2678566,12.5215029 91.1120647,12.0105434 C91.9538451,11.501526 92.9090821,11.2433757 93.9510705,11.2433757 C94.993059,11.2433757 95.9484578,11.501526 96.7900763,12.0105434 C97.632504,12.5202081 98.3030474,13.2279769 98.7826081,14.1134566 C99.2634636,15.002659 99.5075329,16.0182659 99.5075329,17.1313064 C99.5075329,18.2456416 99.2633017,19.2670751 98.7817988,20.1672832 C98.3020763,21.0637688 97.6320185,21.7763931 96.7900763,22.2852486 L96.7900763,22.2852486 Z M102.830469,0.556439306 C102.460805,0.187098266 101.973151,0 101.381105,0 C100.812527,0 100.33151,0.185965318 99.9518104,0.552716763 C99.5690358,0.922543353 99.3748162,1.41149133 99.3748162,2.00612717 L99.3748162,10.1410173 C98.6888971,9.44781503 97.8950243,8.88263584 97.0061457,8.456 C95.8628393,7.90700578 94.6115792,7.62878613 93.2876486,7.62878613 C91.6439029,7.62878613 90.1320647,8.04619653 88.7943769,8.86968786 C87.4579838,9.69188439 86.3931746,10.8431214 85.6294058,12.2910289 C84.8679029,13.7340809 84.4817295,15.3627746 84.4817295,17.1313064 C84.4817295,18.903237 84.8973595,20.5346821 85.7168046,21.98 C86.5372208,23.4275838 87.6870012,24.5830289 89.1339376,25.4144509 C90.5792555,26.245711 92.2000185,26.6671676 93.9510705,26.6671676 C95.7026081,26.6671676 97.3128509,26.2452254 98.7369665,25.4133179 C100.160273,24.5820578 101.303579,23.427422 102.134839,21.9816185 C102.965938,20.5353295 103.387394,18.9035607 103.387394,17.1313064 L103.387394,2.00612717 C103.387394,1.41391908 103.199972,0.926104046 102.830793,0.556601156 L102.830469,0.556439306 Z" id="Fill-7" fill="#050C36"></path>
                    <path d="M113.102925,12.0105434 C113.944705,11.5013642 114.899942,11.2433757 115.941931,11.2433757 C116.983919,11.2433757 117.939318,11.5013642 118.780936,12.0105434 C119.622717,12.5198844 120.292936,13.2326705 120.772659,14.1286705 C121.254162,15.0293642 121.498393,16.0506358 121.498393,17.1644855 C121.498393,18.2781734 121.254324,19.2936185 120.773468,20.1823353 C120.293746,21.0684624 119.623364,21.7759075 118.780936,22.2852486 L118.780775,22.2854104 C117.939965,22.7944277 116.984728,23.052578 115.941931,23.052578 C114.899295,23.052578 113.944058,22.7944277 113.102925,22.2854104 C112.258717,21.7749364 111.582347,21.0665202 111.09259,20.1799075 C110.601538,19.292 110.352451,18.2773642 110.352451,17.1644855 C110.352451,16.0514451 110.601861,15.0308208 111.093399,14.1312601 C111.583318,13.2346127 112.259364,12.5211792 113.102925,12.0105434 M124.125538,12.3141734 C123.294277,10.8690173 122.151133,9.71421965 120.727827,8.88247399 L120.727827,8.88231214 C119.302902,8.05072832 117.692659,7.62878613 115.941931,7.62878613 C114.191688,7.62878613 112.570925,8.05024277 111.124798,8.88150289 C109.677861,9.7134104 108.528081,10.8688555 107.707665,12.3159538 C106.88822,13.7617572 106.47259,15.3930405 106.47259,17.1644855 C106.47259,18.9336647 106.858763,20.5623584 107.620104,22.004763 C108.383549,23.4526705 109.44852,24.6037457 110.785237,25.4262659 C112.122925,26.2497572 113.634763,26.6671676 115.278509,26.6671676 C116.602116,26.6671676 117.853214,26.388948 118.997006,25.8399538 C119.886208,25.4131561 120.680081,24.8479769 121.365676,24.1552601 L121.365676,24.561341 C121.365676,25.1325087 121.558601,25.614659 121.938624,25.9941965 C122.318486,26.3747052 122.800798,26.5674682 123.371965,26.5674682 C123.942647,26.5674682 124.424636,26.3748671 124.805306,25.9943584 C125.185329,25.6140116 125.378254,25.1318613 125.378254,24.561341 L125.378254,17.1644855 C125.378254,15.3927168 124.956798,13.760948 124.125538,12.3141734" id="Fill-9" fill="#050C36"></path>
                    <path d="M10.7588948,18.963526 L7.69605087,18.963526 L7.69605087,13.0645896 L10.7588948,13.0645896 C12.3871029,13.0645896 13.7066636,14.3859306 13.7066636,16.0141387 C13.7066636,16.8282428 13.3768139,17.5651445 12.8433572,18.0986012 C12.4296694,18.5121272 11.8962127,18.8026474 11.2972069,18.9143237 C11.1232185,18.9455607 10.9427561,18.963526 10.7588948,18.963526" id="Fill-11" fill="#0076FE"></path>
                    <g id="Group-15" transform="translate(0.000000, 3.991133)">
                        <mask id="mask-2" fill="white">
                            <use xlink:href="#path-1"></use>
                        </mask>
                        <g id="Clip-14"></g>
                        <path d="M22.0905919,12.0426543 C22.0905919,18.6211977 16.7563491,23.953822 10.1778058,23.953822 C5.86774798,23.953822 2.09114682,21.6641341 4.85549133e-05,18.235348 L6.58668439,18.235348 L6.58668439,18.2157642 L10.3157017,18.2157642 C10.7013896,18.2157642 11.0806035,18.1795098 11.4481642,18.1121803 C12.7037942,17.8792786 13.8263838,17.2686197 14.693089,16.4020763 C15.814222,15.2809434 16.5085572,13.7331746 16.5085572,12.0229087 C16.5085572,8.60399538 13.7362335,5.83021503 10.3157017,5.83021503 L3.88654566,5.83021503 L3.88654566,5.84996069 L4.85549133e-05,5.84996069 C2.09114682,2.41955607 5.86774798,0.129868208 10.1778058,0.129868208 C16.7563491,0.129868208 22.0905919,5.46265434 22.0905919,12.0426543" id="Fill-13" fill="#0067FC" mask="url(#mask-2)"></path>
                    </g>
                    <path d="M13.7066474,16.0141225 C13.7066474,16.8282266 13.3767977,17.5651283 12.843341,18.098585 C12.4296532,18.5122728 11.8961965,18.8027931 11.2971908,18.9143075 C11.1232023,18.9455445 10.9427399,18.9635098 10.7588786,18.9635098 L7.69603468,18.9635098 L7.69603468,13.0645734 L10.7588786,13.0645734 C12.3870867,13.0645734 13.7066474,14.3859145 13.7066474,16.0141225" id="Fill-16" fill="#FFFFFF"></path>
                    <path d="M13.7066474,16.0141225 C13.7066474,16.8282266 13.3767977,17.5651283 12.843341,18.098585 C12.4296532,18.5122728 11.8961965,18.8027931 11.2971908,18.9143075 C11.1232023,18.9455445 10.9427399,18.9635098 10.7588786,18.9635098 L7.69603468,18.9635098 L7.69603468,13.0645734 L10.7588786,13.0645734 C12.3870867,13.0645734 13.7066474,14.3859145 13.7066474,16.0141225" id="Fill-18" fill="#00CBFE"></path>
                    <path d="M150.964525,0.206584971 C150.582721,0.206584971 150.268571,0.33023815 150.022074,0.57689711 C149.774606,0.824203468 149.651762,1.13819191 149.651762,1.51950983 L149.651762,12.0229087 L133.223369,12.0229087 L133.223369,1.51950983 C133.223369,1.13819191 133.099554,0.824203468 132.853057,0.57689711 C132.60575,0.33023815 132.291762,0.206584971 131.910282,0.206584971 C131.528479,0.206584971 131.21449,0.33023815 130.967669,0.57689711 C130.720525,0.824203468 130.597357,1.13819191 130.597357,1.51950983 L130.597357,25.185822 C130.597357,25.5677873 130.720525,25.8817757 130.967669,26.1284347 C131.21449,26.3755792 131.528479,26.4987468 131.910282,26.4987468 C132.291762,26.4987468 132.60575,26.3755792 132.853057,26.1284347 C133.099554,25.8817757 133.223369,25.5677873 133.223369,25.185822 L133.223369,14.3794405 L149.651762,14.3794405 L149.651762,25.185822 C149.651762,25.5677873 149.774606,25.8817757 150.022074,26.1284347 C150.268571,26.3755792 150.582721,26.4987468 150.964525,26.4987468 C151.345843,26.4987468 151.659993,26.3755792 151.907138,26.1284347 C152.153958,25.8817757 152.27745,25.5677873 152.27745,25.185822 L152.27745,1.51950983 C152.27745,1.13819191 152.153958,0.824203468 151.907138,0.57689711 C151.659993,0.33023815 151.345843,0.206584971 150.964525,0.206584971" id="Fill-20" fill="#050C36"></path>
                    <path d="M163.150983,11.1476416 C164.115769,10.5416763 165.238197,10.2386936 166.517457,10.2386936 C167.774058,10.2386936 168.857156,10.5306705 169.766104,11.1139769 C170.675052,11.6977688 171.376185,12.5058844 171.87015,13.5378382 C172.227676,14.2860694 172.447792,15.106 172.534867,15.9953642 L160.211306,15.9953642 C160.328324,15.1485665 160.560092,14.3676416 160.912277,13.6556647 C161.439422,12.5900462 162.185711,11.7536069 163.150983,11.1476416 M170.978035,9.07726012 C169.70978,8.3029711 168.222867,7.91582659 166.517457,7.91582659 C164.789064,7.91582659 163.262983,8.31980347 161.939214,9.12775723 C160.614636,9.93571098 159.576694,11.0414682 158.825064,12.4437341 C158.072948,13.8466474 157.697457,15.4683815 157.697457,17.308289 C157.697457,19.126185 158.095607,20.7420925 158.892393,22.1560116 C159.688694,23.5699306 160.788624,24.6756879 162.191538,25.4719884 C163.593803,26.2689364 165.204532,26.6670867 167.022428,26.6670867 C168.077202,26.6670867 169.176971,26.4597572 170.321734,26.044289 C171.466173,25.6293064 172.408786,25.1075029 173.14941,24.4788786 C173.418728,24.2548786 173.547561,23.9855607 173.536555,23.6709249 C173.525064,23.3569364 173.373572,23.0649595 173.082081,22.7956416 C172.857595,22.6163121 172.588277,22.5321503 172.274127,22.5431561 C171.959653,22.5548092 171.679168,22.6609827 171.432509,22.8629711 C170.938543,23.2896069 170.282243,23.6430867 169.463121,23.9234104 C168.643676,24.2043815 167.830382,24.3442197 167.022428,24.3442197 C165.676,24.3442197 164.486081,24.041237 163.453965,23.4352717 C162.421364,22.8293064 161.607746,21.999341 161.013272,20.9440809 C160.543584,20.1113642 160.262289,19.178948 160.163723,18.1499075 L173.755538,18.1499075 C174.114035,18.1499075 174.406012,18.0435723 174.630659,17.8300925 C174.854821,17.6170983 174.967306,17.330948 174.967306,16.9716416 C174.967306,15.2210751 174.619006,13.6614913 173.923861,12.2922428 C173.227908,10.9236416 172.245642,9.85154913 170.978035,9.07726012" id="Fill-22" fill="#050C36"></path>
                    <path d="M190.537572,23.4015908 C189.515977,24.0075561 188.354705,24.3105387 187.053272,24.3105387 C185.774012,24.3105387 184.617919,24.0075561 183.585803,23.4015908 C182.553202,22.7956254 181.734243,21.9598335 181.128277,20.8935676 C180.522312,19.8279491 180.219329,18.6328509 180.219329,17.3082728 C180.219329,15.9616832 180.522312,14.7614058 181.128277,13.7061457 C181.734243,12.6515329 182.553202,11.815741 183.585803,11.1981225 C184.617919,10.5811514 185.774012,10.2723422 187.053272,10.2723422 C188.354705,10.2723422 189.515977,10.5811514 190.537572,11.1981225 C191.558682,11.815741 192.366474,12.6515329 192.961434,13.7061457 C193.555746,14.7614058 193.853549,15.9616832 193.853549,17.3082728 C193.853549,18.6328509 193.555746,19.8279491 192.961434,20.8935676 C192.366474,21.9598335 191.558682,22.7956254 190.537572,23.4015908 M191.816832,9.14457341 C190.413919,8.32561387 188.826012,7.9158104 187.053272,7.9158104 C185.280208,7.9158104 183.686798,8.32561387 182.272879,9.14457341 C180.85896,9.96418035 179.742197,11.080296 178.923237,12.494215 C178.103792,13.9081341 177.694474,15.5130358 177.694474,17.3082728 C177.694474,19.0814983 178.092624,20.6747468 178.889572,22.0886659 C179.685873,23.502585 180.769133,24.619348 182.13822,25.4383075 C183.506983,26.2579145 185.055561,26.6670705 186.783954,26.6670705 C188.422035,26.6670705 189.886451,26.2915792 191.177202,25.5393017 C192.225665,24.9286428 193.093179,24.1367121 193.78622,23.1699838 L193.78622,25.2194867 C193.78622,25.601452 193.909225,25.9096139 194.156532,26.1452671 C194.403191,26.3809202 194.717179,26.4987468 195.099145,26.4987468 C195.480462,26.4987468 195.794451,26.3809202 196.041757,26.1452671 C196.288416,25.9096139 196.412069,25.601452 196.412069,25.2194867 L196.412069,17.3082728 C196.38941,15.5130358 195.968763,13.9081341 195.149642,12.494215 C194.330197,11.080296 193.219098,9.96418035 191.816832,9.14457341" id="Fill-24" fill="#050C36"></path>
                    <path d="M206.275401,23.9402428 L205.433783,23.9402428 C204.827817,23.9402428 204.328187,23.6372601 203.935702,23.0312948 C203.542731,22.4253295 203.346569,21.6400347 203.346569,20.674763 L203.346569,1.48586127 C203.346569,1.10454335 203.228742,0.795734104 202.993089,0.560080925 C202.757436,0.324427746 202.448627,0.206601156 202.067309,0.206601156 C201.685505,0.206601156 201.377182,0.324427746 201.141528,0.560080925 C200.905875,0.795734104 200.788049,1.10454335 200.788049,1.48586127 L200.788049,20.674763 C200.788049,21.8193642 200.984372,22.8293064 201.377182,23.7045896 C201.769505,24.5798728 202.319956,25.2648208 203.026754,25.7581387 C203.733713,26.252104 204.53584,26.498763 205.433783,26.498763 L205.871424,26.498763 C206.320072,26.498763 206.684557,26.3809364 206.965528,26.1452832 C207.245852,25.9096301 207.386338,25.6014682 207.386338,25.2195029 C207.386338,24.838185 207.285343,24.5293757 207.083355,24.2937225 C206.881366,24.0580694 206.612049,23.9402428 206.275401,23.9402428" id="Fill-26" fill="#050C36"></path>
                    <path d="M219.067857,23.906578 L218.159071,23.906578 C217.10381,23.906578 216.240018,23.5420925 215.566724,22.812474 C214.893429,22.0835029 214.556782,21.1460694 214.556782,20.0014682 L214.556782,11.0129827 L218.361059,11.0129827 C218.697545,11.0129827 218.977868,10.9068092 219.202516,10.6931676 C219.426677,10.4801734 219.539163,10.2166821 219.539163,9.90204624 C219.539163,9.56539884 219.426677,9.29090173 219.202516,9.07726012 C218.977868,8.8642659 218.697545,8.75744509 218.361059,8.75744509 L214.556782,8.75744509 L214.556782,3.5394104 C214.556782,3.15809249 214.433128,2.84410405 214.186631,2.59679769 C213.939325,2.35013873 213.625336,2.22648555 213.244018,2.22648555 C212.862053,2.22648555 212.553729,2.35013873 212.318076,2.59679769 C212.082585,2.84410405 211.964597,3.15809249 211.964597,3.5394104 L211.964597,8.75744509 L209.77655,8.75744509 C209.439903,8.75744509 209.15877,8.8642659 208.934932,9.07726012 C208.710284,9.29090173 208.598123,9.56539884 208.598123,9.90204624 C208.598123,10.2166821 208.710284,10.4801734 208.934932,10.6931676 C209.15877,10.9068092 209.439903,11.0129827 209.77655,11.0129827 L211.964597,11.0129827 L211.964597,20.0014682 C211.964597,21.2587168 212.233914,22.3748324 212.77255,23.3511098 C213.311348,24.3273873 214.046146,25.0964971 214.977753,25.6571445 C215.90855,26.2184393 216.969151,26.498763 218.159071,26.498763 L218.865868,26.498763 C219.269845,26.498763 219.606492,26.3809364 219.87581,26.1452832 C220.145128,25.9096301 220.279787,25.6014682 220.279787,25.2195029 C220.279787,24.838185 220.167302,24.5240347 219.94314,24.2768902 C219.718654,24.0302312 219.426677,23.906578 219.067857,23.906578" id="Fill-28" fill="#050C36"></path>
                    <path d="M240.461572,11.7872879 C239.731954,10.5080277 238.738844,9.53757688 237.482243,8.87528786 C236.224994,8.21348439 234.800231,7.88217803 233.206821,7.88217803 C231.747584,7.88217803 230.423653,8.20199306 229.234382,8.84162312 C228.398913,9.29075607 227.682566,9.85852486 227.079838,10.540074 L227.079838,9.39709133 L227.079838,1.5195422 C227.079838,1.11556532 226.962012,0.795750289 226.726358,0.56009711 C226.490705,0.324443931 226.181896,0.206617341 225.800578,0.206617341 C225.396601,0.206617341 225.076786,0.324443931 224.841133,0.56009711 C224.60548,0.795750289 224.487653,1.11556532 224.487653,1.5195422 L224.487653,9.39709133 L224.487653,17.6786173 L224.487653,25.2195191 C224.487653,25.6014844 224.60548,25.9096462 224.841133,26.1452994 C225.076786,26.3809526 225.396601,26.4987792 225.800578,26.4987792 C226.181896,26.4987792 226.490705,26.3809526 226.726358,26.1452994 C226.962012,25.9096462 227.079838,25.6014844 227.079838,25.2195191 L227.079838,17.6786173 L227.079838,15.2547561 C227.079838,14.3121434 227.337503,13.4705249 227.854127,12.7299006 C228.370104,11.9892763 229.071237,11.4059699 229.958173,10.9793341 C230.844462,10.5531838 231.837572,10.339704 232.937503,10.339704 C234.082104,10.339704 235.108879,10.5643514 236.017827,11.0129988 C236.926775,11.4622936 237.644902,12.1354266 238.17237,13.0328832 C238.699353,13.9308254 238.963491,15.0754266 238.963491,16.4666867 L238.963491,25.2195191 C238.963491,25.5788254 239.086659,25.8818081 239.333803,26.1284671 C239.580624,26.3756116 239.894451,26.4987792 240.276416,26.4987792 C240.635075,26.4987792 240.938058,26.3756116 241.185364,26.1284671 C241.432023,25.8818081 241.555676,25.5788254 241.555676,25.2195191 L241.555676,16.4666867 C241.555676,14.6266173 241.190705,13.066548 240.461572,11.7872879" id="Fill-30" fill="#050C36"></path>
                </g>
            </g>
        </g>
    </g>
</svg>