<?xml version="1.0" encoding="UTF-8"?>
<svg width="200px" height="51px" viewBox="0 0 200 51" version="1.1" xmlns="http://www.w3.org/2000/svg" xmlns:xlink="http://www.w3.org/1999/xlink">
    <title>Group 17</title>
    <g id="Page-1" stroke="none" stroke-width="1" fill="none" fill-rule="evenodd">
        <g id="Product" transform="translate(-762.000000, -1420.000000)">
            <g id="Group-17" transform="translate(762.000000, 1420.000000)">
                <path d="M36.9240534,7.7798301 L22.1335194,22.5703641 C21.7468689,22.9570146 21.1201699,22.9570146 20.7335194,22.5703641 L5.94298544,7.7798301 C10.2187136,5.50070388 15.6505097,6.16283981 19.2543932,9.7667233 L21.433034,11.9456068 L23.611432,9.7667233 C23.6126456,9.76550971 23.6141019,9.76453883 23.6153155,9.76308252 C27.2194417,6.16114078 32.6495388,5.49997573 36.9240534,7.7798301" id="Fill-1" fill="#00E5A6"></path>
                <path d="M39.6015534,25.7568689 L37.4231553,27.9357524 L31.7610194,33.5978883 L24.0476699,25.8845388 C23.6612621,25.4981311 23.6612621,24.871432 24.0476699,24.4847816 L39.1726699,9.35978155 C39.3185437,9.4906068 39.4612621,9.62628641 39.6015534,9.76682039 C39.602767,9.76803398 39.6042233,9.76949029 39.6056796,9.7709466 C44.0185437,14.1862379 44.0173301,21.3432767 39.6015534,25.7568689" id="Fill-3" fill="#FFBC00"></path>
                <path d="M29.846699,35.5121845 L21.4331068,43.925534 L13.0197573,35.5126699 L20.7335922,27.7990777 C21.12,27.4124272 21.7469417,27.4124272 22.1335922,27.7990777 L29.846699,35.5121845 Z" id="Fill-5" fill="#8162FF"></path>
                <path d="M18.8192476,25.8846359 L11.1056553,33.5982282 L3.34813107,25.8407039 C-1.08876214,21.4040534 -1.13924757,14.0928883 3.33623786,9.69507282 C3.45347087,9.58002427 3.57240291,9.46813107 3.6932767,9.35890777 L18.8192476,24.4846359 C19.2058981,24.8712864 19.2058981,25.4979854 18.8192476,25.8846359" id="Fill-7" fill="#16AAFF"></path>
                <path d="M57.9247816,31.1462136 C58.2492961,33.8498544 60.3039078,36.0129612 63.9810922,36.0129612 C66.8468689,36.0129612 68.4150728,34.3906311 68.4150728,32.5520388 C68.4150728,30.9299515 67.225267,29.6862621 65.0624029,29.1996117 L60.6284223,28.2263107 C56.5728398,27.3610194 54.1395874,24.6032524 54.1395874,20.9263107 C54.1395874,16.4923301 58.3034223,12.7073786 63.3861893,12.7073786 C70.5238107,12.7073786 72.740801,17.3576214 73.2815777,19.6828641 L68.7934709,21.3590777 C68.5772087,20.0071359 67.4956553,17.0331068 63.3861893,17.0331068 C60.7905583,17.0331068 59.0602184,18.7093204 59.0602184,20.4937864 C59.0602184,22.0619903 60.0335194,23.1974272 62.0342476,23.6299515 L66.2522087,24.5493689 C70.956335,25.5767961 73.4437136,28.4425728 73.4437136,32.2818932 C73.4437136,35.958835 70.3616748,40.3386893 63.926966,40.3386893 C56.7891019,40.3386893 53.7611893,35.7425728 53.3284223,32.7685437 L57.9247816,31.1462136 Z" id="Fill-9" fill="#03105E"></path>
                <path d="M78.2609223,39.5274272 L83.2898058,39.5274272 L83.2898058,13.5182039 L78.2609223,13.5182039 L78.2609223,39.5274272 Z M80.748301,0 C82.8031553,0 84.4252427,1.6223301 84.4252427,3.67718447 C84.4252427,5.6776699 82.8031553,7.3 80.748301,7.3 C78.7475728,7.3 77.1254854,5.6776699 77.1254854,3.67718447 C77.1254854,1.6223301 78.7475728,0 80.748301,0 L80.748301,0 Z" id="Fill-11" fill="#03105E"></path>
                <path d="M113.678083,32.2267233 L108.733422,31.5099757 C107.839733,33.4344903 105.920316,35.6340049 101.946772,35.6340049 C97.7288107,35.6340049 93.9977427,32.4444417 93.9977427,26.4961408 C93.9977427,20.4398301 97.7831796,17.4119175 101.892403,17.4119175 C105.627354,17.4119175 107.559636,19.5213835 108.463277,21.7051214 L113.463277,20.9806068 L113.464248,20.9806068 C112.383422,17.0327913 108.813762,12.7068204 101.892403,12.7068204 C94.4848786,12.7068204 88.8067233,18.3849757 88.8067233,26.4961408 C88.8067233,34.390801 94.3768689,40.3388592 101.946772,40.3388592 C108.705752,40.3388592 112.43682,35.9585194 113.680995,32.2276942 L113.678083,32.2267233 Z" id="Fill-13" fill="#03105E"></path>
                <path d="M131.850534,17.2493932 C127.362427,17.2493932 124.11801,20.764199 124.11801,26.3877427 C124.11801,32.0112864 127.362427,35.6884709 131.850534,35.6884709 C136.500777,35.6884709 139.528932,32.0112864 139.528932,26.3877427 C139.528932,20.764199 136.554903,17.2493932 131.850534,17.2493932 L131.850534,17.2493932 Z M119.143252,39.5275485 L119.143252,0.378519417 L124.172136,0.378519417 L124.172136,17.195267 C125.415825,14.870267 128.443981,12.7612864 132.769709,12.7612864 C140.664369,12.7612864 144.719951,18.8173544 144.719951,26.3877427 C144.719951,34.120267 140.340097,40.2307039 132.60733,40.2307039 C128.768252,40.2307039 125.794223,38.5542476 124.172136,35.7423544 L124.172136,39.5275485 L119.143252,39.5275485 Z" id="Fill-14" fill="#03105E"></path>
                <path d="M166.510461,28.3884951 L166.510461,27.198932 L158.561917,28.3884951 C156.398811,28.7130097 154.776481,29.9564563 154.776481,32.2819417 C154.776481,34.2285437 156.398811,36.0668932 158.994442,36.0668932 C163.158034,36.0668932 166.510461,34.0664078 166.510461,28.3884951 M157.480364,24.6574272 L164.509976,23.63 C166.07818,23.4137379 166.510461,22.6028155 166.510461,21.6833981 C166.510461,19.1421359 164.834248,17.0331553 160.886917,17.0331553 C157.318228,17.0331553 155.3175,19.2501456 154.992985,22.278301 L150.126481,21.1426214 C150.667257,16.1678641 155.155364,12.7074272 160.778908,12.7074272 C168.565316,12.7074272 171.593471,17.1414078 171.593471,22.2241748 L171.593471,35.2557282 C171.593471,37.5268447 171.809733,38.8787864 171.917743,39.5275728 L166.942985,39.5275728 C166.834976,38.8787864 166.67284,37.9052427 166.67284,36.0130097 C165.53716,37.8513592 162.941772,40.3387379 158.291529,40.3387379 C152.9925,40.3387379 149.585704,36.6617961 149.585704,32.5520874 C149.585704,27.9018447 152.9925,25.3062136 157.480364,24.6574272" id="Fill-15" fill="#03105E"></path>
                <path d="M194.283714,12.9494417 L189.183956,28.1047816 C188.626432,29.7758981 188.147306,31.238034 187.750947,32.4763835 C187.29051,31.0421602 186.792694,29.5744417 186.263811,28.0931311 L180.927646,12.9494417 L175.134927,12.9494417 L185.195607,39.058665 L184.34949,41.7234709 C183.749248,43.3489563 183.082985,44.4737136 182.36915,45.0666748 C181.677888,45.6399757 180.851917,45.9186165 179.843908,45.9186165 L178.264539,45.9186165 L178.264539,50.3795388 L180.401917,50.3795388 C182.336141,50.3795388 184.004587,49.8142476 185.361141,48.699199 C186.700461,47.5967718 187.830558,45.7831796 188.817451,43.1516262 L199.975218,12.9494417 L194.283714,12.9494417 Z" id="Fill-16" fill="#03105E"></path>
            </g>
        </g>
    </g>
</svg>