<?xml version="1.0" encoding="UTF-8"?>
<svg width="342px" height="50px" viewBox="0 0 342 50" version="1.1" xmlns="http://www.w3.org/2000/svg" xmlns:xlink="http://www.w3.org/1999/xlink">
    <title>Group 31</title>
    <defs>
        <polygon id="path-1" points="8.61460957e-05 0.230603448 39.1931139 0.230603448 39.1931139 42.5287356 8.61460957e-05 42.5287356"></polygon>
        <polygon id="path-3" points="0.127626026 0.0716091954 26.1278237 0.0716091954 26.1278237 33.3635632 0.127626026 33.3635632"></polygon>
    </defs>
    <g id="Page-1" stroke="none" stroke-width="1" fill="none" fill-rule="evenodd">
        <g id="Product" transform="translate(-120.000000, -2484.000000)">
            <g id="Group-31" transform="translate(120.000000, 2484.000000)">
                <path d="M75.2151899,18.0472126 C75.2746307,17.8673276 75.3021975,17.6242241 75.3021975,17.2834195 C75.3021975,16.1236494 74.6087214,15.1653161 73.2412957,14.4351437 L73.2410086,14.4351437 C71.9867214,13.7658908 70.2551849,13.4268103 68.0937793,13.4268103 C66.0615929,13.4268103 64.1227315,13.8400287 62.3311798,14.6552586 C60.9870136,15.2667529 59.7907315,16.059569 58.7598499,17.0207759 C58.6659506,14.9282471 57.4332,13.7802586 55.2646156,13.7802586 C54.1742932,13.7802586 53.3088121,14.0929023 52.6928675,14.709569 C52.0766358,15.3259483 51.7642126,16.1917529 51.7642126,17.2834195 L51.7642126,43.6075575 C51.7642126,44.7431897 52.0795073,45.6216379 52.7003335,46.2179023 C53.3139809,46.810431 54.1768776,47.1107184 55.2646156,47.1107184 C56.3985854,47.1107184 57.2764141,46.7952011 57.8739809,46.1736494 C58.4655174,45.5584195 58.7655929,44.6949138 58.7655929,43.6075575 L58.7655929,26.4115805 C58.7655929,24.3796839 59.539472,22.8115805 61.131739,21.6170402 C62.7509985,20.401523 64.934802,19.785431 67.6234217,19.785431 C68.564137,19.785431 69.8187113,19.9210632 71.3380413,20.1868678 C71.7661874,20.2733621 72.0912453,20.3153161 72.3310186,20.3153161 C73.8015325,20.3153161 74.8014015,19.5227874 75.2151899,18.0472126" id="Fill-1" fill="#050C36"></path>
                <path d="M86.0844151,21.9432184 C87.7565108,20.4722414 89.9790801,19.7265517 92.6895234,19.7265517 C95.1148232,19.7265517 97.1022136,20.4656322 98.5962741,21.9236782 C99.9760474,23.271092 100.8757,25.0659195 101.275418,27.2662069 L83.0164655,27.2662069 C83.5250146,25.0765517 84.5553219,23.288046 86.0844151,21.9432184 M100.805921,15.6279885 C98.5290801,14.2458046 95.7982489,13.5446552 92.6895234,13.5446552 C89.5454781,13.5446552 86.6894479,14.2733908 84.2006872,15.7101724 C81.7090549,17.1501149 79.7371708,19.1845977 78.3398811,21.7575862 C76.9480474,24.3222414 76.2419365,27.255 76.2419365,30.4748276 C76.2419365,33.7015517 76.9896846,36.6294253 78.4653673,39.1765517 C79.9430599,41.7291379 82.0252111,43.7518391 84.6538156,45.1871839 C87.2743798,46.6199425 90.2748484,47.3463793 93.5719466,47.3463793 C95.4301179,47.3463793 97.4008534,46.9995402 99.4293068,46.3159195 C101.462642,45.6311494 103.192455,44.7282759 104.558732,43.642069 C105.331463,43.0616092 105.723715,42.317069 105.723715,41.4285632 C105.723715,40.5124713 105.299589,39.6943678 104.480914,39.0124713 C103.944511,38.5256897 103.224329,38.2788506 102.340471,38.2788506 C101.470969,38.2788506 100.701397,38.5368966 100.060471,39.0409195 C99.2888887,39.6291379 98.2832766,40.1354598 97.071201,40.546092 C95.8617098,40.9561494 94.6843798,41.1644828 93.5719466,41.1644828 C90.7363043,41.1644828 88.3110045,40.3547126 86.3635285,38.7584483 C84.5857602,37.3021264 83.4374327,35.3986782 82.9438156,33.0949425 L104.63569,33.0949425 C105.566355,33.0949425 106.34971,32.7946552 106.964793,32.2027011 C107.585906,31.6044253 107.901201,30.8449425 107.901201,29.9449425 C107.901201,26.771954 107.287841,23.9153448 106.07835,21.4535632 C104.859095,18.9733908 103.085347,17.0136207 100.805921,15.6279885" id="Fill-3" fill="#050C36"></path>
                <path d="M137.326468,15.320977 C135.095284,14.1034483 132.550241,13.4859195 129.761692,13.4859195 C127.739556,13.4859195 125.809309,13.845977 124.023787,14.5560345 C122.635399,15.1086207 121.380825,15.8477011 120.279591,16.7603448 C120.17679,15.9678161 119.858337,15.2997126 119.327964,14.7683908 C118.671818,14.112931 117.806624,13.7804598 116.755928,13.7804598 C115.746871,13.7804598 114.89345,14.1109195 114.220075,14.7617816 C113.540956,15.4183908 113.196659,16.2864943 113.196659,17.3422414 L113.196659,43.6077586 C113.196659,44.6218391 113.538659,45.4778736 114.213183,46.1517241 C114.886845,46.8270115 115.742563,47.1695402 116.755928,47.1695402 C117.810931,47.1695402 118.678422,46.8247126 119.335143,46.1451149 C119.985546,45.4706897 120.315772,44.6172414 120.315772,43.6077586 L120.315772,27.0002874 C120.315772,25.7071839 120.669833,24.5241379 121.36819,23.4841954 C122.074301,22.433908 123.070724,21.5862069 124.329319,20.9646552 C125.599687,20.3385057 127.031148,20.020977 128.584936,20.020977 C131.247425,20.020977 133.404523,20.7913793 134.996216,22.3106322 C136.580155,23.8229885 137.383324,26.1143678 137.383324,29.1204023 L137.383324,43.6077586 C137.383324,44.6218391 137.725898,45.4775862 138.399848,46.1517241 C139.074085,46.8270115 139.929515,47.1695402 140.943168,47.1695402 C141.955384,47.1695402 142.811102,46.8272989 143.485339,46.1520115 C144.160437,45.4767241 144.502437,44.6206897 144.502437,43.6077586 L144.502437,29.1204023 C144.502437,25.8632184 143.866105,23.0298851 142.611243,20.6991379 C141.348342,18.3557471 139.570286,16.5462644 137.326468,15.320977" id="Fill-5" fill="#050C36"></path>
                <path d="M171.724891,39.566523 L171.724891,39.5668103 C170.23284,40.470546 168.538059,40.9288793 166.687928,40.9288793 C164.838085,40.9288793 163.143304,40.470546 161.650966,39.5668103 C160.154321,38.6610632 158.954881,37.3941092 158.085666,35.8012931 C157.213581,34.2053161 156.771077,32.3932471 156.771077,30.4159483 C156.771077,28.4409483 157.213007,26.6397989 158.084231,25.0625 C158.953158,23.4892241 160.153173,22.2314655 161.650966,21.3242816 C163.144452,20.420546 164.839233,19.9622126 166.687928,19.9622126 C168.536624,19.9622126 170.231692,20.420546 171.724891,21.3242816 C173.219525,22.229454 174.409203,23.4857759 175.260039,25.0579023 C176.113173,26.6366379 176.546201,28.4397989 176.546201,30.4159483 C176.546201,32.3943966 176.112886,34.2079023 175.258604,35.8061782 C174.40748,37.3978448 173.218664,38.6630747 171.724891,39.566523 L171.724891,39.566523 Z M182.441752,0.988074713 C181.785893,0.332327586 180.920699,0.000143678161 179.870291,0.000143678161 C178.86152,0.000143678161 178.0081,0.330316092 177.334437,0.981465517 C176.655319,1.63807471 176.310735,2.50617816 176.310735,3.56192529 L176.310735,18.0050287 C175.093777,16.7742816 173.685289,15.7708333 172.108241,15.0133621 C170.079787,14.0386494 167.859803,13.5446839 165.510886,13.5446839 C162.594553,13.5446839 159.912251,14.2857759 157.538926,15.7478448 C155.167898,17.2076149 153.278714,19.2515805 151.923636,21.8222701 C150.572578,24.3843391 149.88743,27.2760057 149.88743,30.4159483 C149.88743,33.5619253 150.62484,36.458477 152.078699,39.024569 C153.534281,41.5946839 155.574221,43.6461207 158.141374,45.1222701 C160.705656,46.5981322 163.581213,47.346408 166.687928,47.346408 C169.795505,47.346408 172.652397,46.5972701 175.179062,45.1202586 C177.704291,43.6443966 179.732745,41.5943966 181.207566,39.0274425 C182.6821,36.4596264 183.429848,33.5625 183.429848,30.4159483 L183.429848,3.56192529 C183.429848,2.51048851 183.097324,1.64439655 182.442326,0.988362069 L182.441752,0.988074713 Z" id="Fill-7" fill="#050C36"></path>
                <path d="M200.667136,21.3243103 C202.160622,20.4202874 203.855403,19.9622414 205.704098,19.9622414 C207.552793,19.9622414 209.247861,20.4202874 210.74106,21.3243103 C212.234547,22.2286207 213.42365,23.4941379 214.274773,25.0849425 C215.129055,26.6840805 215.56237,28.4972989 215.56237,30.4748851 C215.56237,32.4521839 215.129343,34.2550575 214.276209,35.832931 C213.425086,37.4062069 212.235695,38.6622414 210.74106,39.5665517 L210.740773,39.5668391 C209.24901,40.4705747 207.554229,40.928908 205.704098,40.928908 C203.854254,40.928908 202.159474,40.4705747 200.667136,39.5668391 C199.169343,38.6605172 197.969327,37.4027586 197.100401,35.8286207 C196.229176,34.2521839 195.787247,32.4507471 195.787247,30.4748851 C195.787247,28.4987356 196.229751,26.6866667 197.101836,25.0895402 C197.97105,23.4975862 199.170491,22.2309195 200.667136,21.3243103 M220.223448,21.8633908 C218.748627,19.2975862 216.720461,17.2472989 214.195232,15.7705747 L214.195232,15.7702874 C211.667131,14.2938506 208.810239,13.5447126 205.704098,13.5447126 C202.598819,13.5447126 199.723262,14.2929885 197.157544,15.7688506 C194.59039,17.2458621 192.550451,19.2972989 191.094869,21.8665517 C189.64101,24.4335057 188.903599,27.3297701 188.903599,30.4748851 C188.903599,33.615977 189.588748,36.5076437 190.939519,39.0685632 C192.294023,41.6392529 194.183494,43.682931 196.555096,45.1432759 C198.928421,46.6053448 201.610723,47.3464368 204.527055,47.3464368 C206.875398,47.3464368 209.095096,46.8524713 211.124411,45.8777586 C212.702033,45.12 214.110521,44.1165517 215.326904,42.8866667 L215.326904,43.6076437 C215.326904,44.6217241 215.669191,45.4777586 216.343428,46.1516092 C217.017378,46.8271839 217.873096,47.1694253 218.886461,47.1694253 C219.898965,47.1694253 220.754108,46.8271839 221.429494,46.1518966 C222.10373,45.4766092 222.446018,44.6205747 222.446018,43.6076437 L222.446018,30.4748851 C222.446018,27.3291954 221.69827,24.432069 220.223448,21.8633908" id="Fill-9" fill="#050C36"></path>
                <path d="M19.0884242,33.6689655 L13.6543285,33.6689655 L13.6543285,23.1956897 L19.0884242,23.1956897 C21.9771899,23.1956897 24.3183537,25.5416667 24.3183537,28.4324713 C24.3183537,29.8778736 23.7331345,31.1862069 22.7866761,32.1333333 C22.0527113,32.8675287 21.1062529,33.3833333 20.0434972,33.5816092 C19.7348071,33.637069 19.4146307,33.6689655 19.0884242,33.6689655" id="Fill-11" fill="#0076FE"></path>
                <g id="Group-15" transform="translate(0.000000, 7.086207)">
                    <mask id="mask-2" fill="white">
                        <use xlink:href="#path-1"></use>
                    </mask>
                    <g id="Clip-14"></g>
                    <path d="M39.1931139,21.3811782 C39.1931139,33.0610632 29.7291038,42.5288793 18.0574564,42.5288793 C10.4105547,42.5288793 3.71011134,38.4636494 8.61460957e-05,32.3760057 L11.6860912,32.3760057 L11.6860912,32.3412356 L18.3021113,32.3412356 C18.9863985,32.3412356 19.6591995,32.2768678 20.3113254,32.1573276 C22.5390635,31.7438218 24.5307612,30.6596264 26.068469,29.1211207 C28.0575824,27.1306034 29.2894715,24.3826149 29.2894715,21.3461207 C29.2894715,15.2760057 24.3708166,10.3512931 18.3021113,10.3512931 L6.8955068,10.3512931 L6.8955068,10.3863506 L8.61460957e-05,10.3863506 C3.71011134,4.29583333 10.4105547,0.230603448 18.0574564,0.230603448 C29.7291038,0.230603448 39.1931139,9.6987069 39.1931139,21.3811782" id="Fill-13" fill="#0067FC" mask="url(#mask-2)"></path>
                </g>
                <path d="M24.3183249,28.4324425 C24.3183249,29.8778448 23.7331058,31.1861782 22.7866474,32.1333046 C22.0526826,32.8677874 21.1062242,33.3833046 20.0434685,33.5815805 C19.7347783,33.6370402 19.414602,33.6689368 19.0883955,33.6689368 L13.6542997,33.6689368 L13.6542997,23.1956609 L19.0883955,23.1956609 C21.9771612,23.1956609 24.3183249,25.5416379 24.3183249,28.4324425" id="Fill-16" fill="#FFFFFF"></path>
                <path d="M24.3183249,28.4324425 C24.3183249,29.8778448 23.7331058,31.1861782 22.7866474,32.1333046 C22.0526826,32.8677874 21.1062242,33.3833046 20.0434685,33.5815805 C19.7347783,33.6370402 19.414602,33.6689368 19.0883955,33.6689368 L13.6542997,33.6689368 L13.6542997,23.1956609 L19.0883955,23.1956609 C21.9771612,23.1956609 24.3183249,25.5416379 24.3183249,28.4324425" id="Fill-18" fill="#00CBFE"></path>
                <path d="M235.503296,26.0681897 L245.119211,26.0681897 C247.150248,26.0681897 248.961614,25.6199138 250.554742,24.7233621 C252.146722,23.8268103 253.39182,22.5819828 254.28774,20.9877299 C255.183372,19.3943391 255.631619,17.5808333 255.631619,15.5486494 C255.631619,13.4368678 255.183372,11.5842816 254.28774,9.99002874 C253.39182,8.39663793 252.146722,7.14146552 250.554742,6.22451149 C248.961614,5.30813218 247.150248,4.84979885 245.119211,4.84979885 L235.503296,4.84979885 L235.503296,26.0681897 Z M233.173906,47.0475 C232.496223,47.0475 231.939145,46.8288218 231.501236,46.3900287 C231.062752,45.9520977 230.844228,45.3943391 230.844228,44.7164655 L230.844228,2.69807471 C230.844228,2.02077586 231.062752,1.4633046 231.501236,1.02451149 C231.939145,0.58658046 232.496223,0.36704023 233.173906,0.36704023 L245.119211,0.36704023 C248.065694,0.36704023 250.674198,1.01502874 252.943573,2.30956897 C255.213523,3.60497126 256.984687,5.38772989 258.259649,7.65899425 C259.533462,9.93025862 260.170656,12.5601437 260.170656,15.5486494 C260.170656,18.4578448 259.533462,21.0380172 258.259649,23.2888793 C256.984687,25.5406034 255.213523,27.3138793 252.943573,28.6084195 C250.674198,29.9038218 248.065694,30.5509483 245.119211,30.5509483 L235.503296,30.5509483 L235.503296,44.7164655 C235.503296,45.3943391 235.283624,45.9520977 234.846289,46.3900287 C234.407805,46.8288218 233.85044,47.0475 233.173906,47.0475 L233.173906,47.0475 Z" id="Fill-20" fill="#050C36"></path>
                <path d="M270.08567,47.0474713 C269.368935,47.0474713 268.801519,46.8382759 268.383423,46.4198851 C267.965327,46.0014943 267.75628,45.4336782 267.75628,44.7164368 L267.75628,16.6842529 C267.75628,15.9670115 267.965327,15.3991954 268.383423,14.9808046 C268.801519,14.5624138 269.368935,14.3532184 270.08567,14.3532184 C270.762204,14.3532184 271.310093,14.5624138 271.728189,14.9808046 C272.146285,15.3991954 272.355332,15.9670115 272.355332,16.6842529 L272.355332,44.7164368 C272.355332,45.4336782 272.146285,46.0014943 271.728189,46.4198851 C271.310093,46.8382759 270.762204,47.0474713 270.08567,47.0474713 M270.025942,8.13712644 C269.149549,8.13712644 268.392612,7.81873563 267.75628,7.1808046 C267.118798,6.54373563 266.800632,5.76672414 266.800632,4.84977011 C266.800632,3.85436782 267.129136,3.06701149 267.786144,2.48885057 C268.443151,1.91183908 269.209277,1.62218391 270.08567,1.62218391 C270.921861,1.62218391 271.668461,1.91183908 272.325469,2.48885057 C272.982476,3.06701149 273.310693,3.85436782 273.310693,4.84977011 C273.310693,5.76672414 272.991665,6.54373563 272.355332,7.1808046 C271.718139,7.81873563 270.941388,8.13712644 270.025942,8.13712644" id="Fill-22" fill="#050C36"></path>
                <path d="M291.109022,47.0474713 C289.515893,47.0474713 288.09276,46.6095402 286.838473,45.7325287 C285.584473,44.8563793 284.607863,43.6405747 283.91209,42.0865517 C283.214881,40.5325287 282.866563,38.7394253 282.866563,36.7072414 L282.866563,2.63827586 C282.866563,1.96126437 283.075611,1.41298851 283.493707,0.994597701 C283.91209,0.576206897 284.45883,0.367011494 285.136226,0.367011494 C285.813047,0.367011494 286.360649,0.576206897 286.778745,0.994597701 C287.19684,1.41298851 287.405888,1.96126437 287.405888,2.63827586 L287.405888,36.7072414 C287.405888,38.4210345 287.753918,39.8152874 288.451127,40.8911494 C289.147475,41.9670115 290.033918,42.5049425 291.109022,42.5049425 L292.602221,42.5049425 C293.1995,42.5049425 293.677324,42.7141379 294.035692,43.1325287 C294.394059,43.5509195 294.573243,44.0991954 294.573243,44.7762069 C294.573243,45.4543678 294.323994,46.0014943 293.826644,46.4198851 C293.328432,46.8382759 292.681762,47.0474713 291.885485,47.0474713 L291.109022,47.0474713 Z" id="Fill-24" fill="#050C36"></path>
                <path d="M307.952105,47.0474713 C306.358977,47.0474713 304.935843,46.6095402 303.681556,45.7325287 C302.427556,44.8563793 301.450947,43.6405747 300.755173,42.0865517 C300.057964,40.5325287 299.709647,38.7394253 299.709647,36.7072414 L299.709647,2.63827586 C299.709647,1.96126437 299.918695,1.41298851 300.33679,0.994597701 C300.755173,0.576206897 301.301914,0.367011494 301.979309,0.367011494 C302.65613,0.367011494 303.203732,0.576206897 303.621828,0.994597701 C304.039924,1.41298851 304.248972,1.96126437 304.248972,2.63827586 L304.248972,36.7072414 C304.248972,38.4210345 304.597002,39.8152874 305.294211,40.8911494 C305.990559,41.9670115 306.877002,42.5049425 307.952105,42.5049425 L309.445304,42.5049425 C310.042584,42.5049425 310.520408,42.7141379 310.878775,43.1325287 C311.237143,43.5509195 311.416327,44.0991954 311.416327,44.7762069 C311.416327,45.4543678 311.167078,46.0014943 310.669727,46.4198851 C310.171516,46.8382759 309.524846,47.0474713 308.728569,47.0474713 L307.952105,47.0474713 Z" id="Fill-26" fill="#050C36"></path>
                <g id="Group-30" transform="translate(315.869018, 13.982759)">
                    <mask id="mask-4" fill="white">
                        <use xlink:href="#path-3"></use>
                    </mask>
                    <g id="Clip-29"></g>
                    <path d="M13.2864559,33.3635632 C10.9363904,33.3635632 8.607,32.9655747 6.29828463,32.1681609 C3.98842065,31.3716092 2.11732746,30.1762069 0.68356927,28.581954 C0.245085642,28.1037931 0.0659017632,27.5658621 0.146304786,26.9681609 C0.225559194,26.3704598 0.524198992,25.852931 1.04193703,25.4141379 C1.59930227,25.0164368 2.17705542,24.8566667 2.77433501,24.935977 C3.37161461,25.0164368 3.86896474,25.2750575 4.26753401,25.7129885 C5.22318136,26.8290805 6.48665743,27.6854023 8.06025945,28.2831034 C9.63271285,28.8808046 11.3751612,29.1796552 13.2864559,29.1796552 C16.2326524,29.1796552 18.3633325,28.6716092 19.6773476,27.6555172 C20.9913627,26.6394253 21.6678967,25.4141379 21.7080982,23.9796552 C21.7080982,22.5451724 21.0304156,21.3601149 19.6773476,20.4233333 C18.323131,19.4874138 16.0933829,18.7601149 12.9878161,18.2417241 C8.96536776,17.6049425 6.01917128,16.4888506 4.14807809,14.8945977 C2.27583627,13.3014943 1.34057683,11.4083908 1.34057683,9.21643678 C1.34057683,7.18425287 1.87812846,5.49114943 2.95351889,4.13597701 C4.02862217,2.78195402 5.4620932,1.76586207 7.25393199,1.08770115 C9.04548363,0.410689655 11.0167935,0.0716091954 13.167,0.0716091954 C15.8340831,0.0716091954 18.1336096,0.530229885 20.0652922,1.44632184 C21.9964005,2.36356322 23.5593778,3.59804598 24.7542242,5.15206897 C25.1516448,5.67045977 25.3113023,6.2083908 25.2320479,6.76586207 C25.1516448,7.3241954 24.8334786,7.78195402 24.2761134,8.14057471 C23.7982897,8.41988506 23.2506877,8.50954023 22.6338816,8.40954023 C22.015927,8.3104023 21.4887128,8.02103448 21.0510907,7.54287356 C20.0552418,6.38770115 18.9008841,5.54057471 17.586869,5.00264368 C16.2725668,4.46471264 14.7589798,4.19574713 13.0475441,4.19574713 C10.857136,4.19574713 9.10521159,4.64402299 7.79119647,5.54057471 C6.47746851,6.43712644 5.82046096,7.56327586 5.82046096,8.91758621 C5.82046096,9.83482759 6.06856171,10.6313793 6.56706045,11.3083908 C7.06441058,11.9862644 7.92041562,12.5839655 9.13536272,13.1014943 C10.3494484,13.6198851 12.0516952,14.0578161 14.2421033,14.4164368 C17.2285013,14.8945977 19.5874685,15.6023563 21.3198665,16.5382759 C23.0519773,17.4750575 24.2858766,18.5704598 25.023,19.8256322 C25.759262,21.0808046 26.1279673,22.4460345 26.1279673,23.9198851 C26.1279673,25.7931609 25.5800781,27.4368391 24.4854484,28.8509195 C23.3899572,30.2658621 21.8769446,31.3716092 19.9458363,32.1681609 C18.0141537,32.9655747 15.7947431,33.3635632 13.2864559,33.3635632" id="Fill-28" fill="#050C36" mask="url(#mask-4)"></path>
                </g>
            </g>
        </g>
    </g>
</svg>